<svg id="visual" viewBox="0 0 980 412" width="980" height="412" xmlns="http://www.w3.org/2000/svg" xmlns:xlink="http://www.w3.org/1999/xlink" version="1.1"><g stroke-width="1" stroke-linejoin="bevel"><path d="M562.4 232L532.4 274L637.3 326Z" fill="#205a7a" stroke="#205a7a"></path><path d="M637.3 326L669.3 210L562.4 232Z" fill="#15384f" stroke="#15384f"></path><path d="M532.4 274L577.4 412L637.3 326Z" fill="#19435d" stroke="#19435d"></path><path d="M577.4 412L654.3 412L637.3 326Z" fill="#277297" stroke="#277297"></path><path d="M637.3 326L762.2 236L669.3 210Z" fill="#246688" stroke="#246688"></path><path d="M412.6 213L445.6 317L532.4 274Z" fill="#205a7a" stroke="#205a7a"></path><path d="M532.4 274L445.6 317L577.4 412Z" fill="#00101c" stroke="#00101c"></path><path d="M669.3 210L632.3 128L562.4 232Z" fill="#277297" stroke="#277297"></path><path d="M562.4 232L412.6 213L532.4 274Z" fill="#19435d" stroke="#19435d"></path><path d="M777.2 345L762.2 236L637.3 326Z" fill="#246688" stroke="#246688"></path><path d="M669.3 210L739.2 83L632.3 128Z" fill="#112e42" stroke="#112e42"></path><path d="M437.6 131L412.6 213L562.4 232Z" fill="#1d4e6b" stroke="#1d4e6b"></path><path d="M654.3 412L777.2 345L637.3 326Z" fill="#1d4e6b" stroke="#1d4e6b"></path><path d="M364.7 412L441.6 412L445.6 317Z" fill="#00101c" stroke="#00101c"></path><path d="M445.6 317L441.6 412L577.4 412Z" fill="#112e42" stroke="#112e42"></path><path d="M632.3 128L544.4 78L562.4 232Z" fill="#19435d" stroke="#19435d"></path><path d="M544.4 78L437.6 131L562.4 232Z" fill="#081a28" stroke="#081a28"></path><path d="M654.3 412L798.2 412L777.2 345Z" fill="#0c2435" stroke="#0c2435"></path><path d="M893.1 298L871.1 221L762.2 236Z" fill="#19435d" stroke="#19435d"></path><path d="M762.2 236L739.2 83L669.3 210Z" fill="#15384f" stroke="#15384f"></path><path d="M672.3 0L535.4 0L544.4 78Z" fill="#19435d" stroke="#19435d"></path><path d="M850.1 116L739.2 83L762.2 236Z" fill="#277297" stroke="#277297"></path><path d="M332.7 185L338.7 283L412.6 213Z" fill="#205a7a" stroke="#205a7a"></path><path d="M412.6 213L338.7 283L445.6 317Z" fill="#277297" stroke="#277297"></path><path d="M338.7 283L364.7 412L445.6 317Z" fill="#19435d" stroke="#19435d"></path><path d="M437.6 131L332.7 185L412.6 213Z" fill="#1d4e6b" stroke="#1d4e6b"></path><path d="M893.1 298L762.2 236L777.2 345Z" fill="#0c2435" stroke="#0c2435"></path><path d="M672.3 0L544.4 78L632.3 128Z" fill="#0c2435" stroke="#0c2435"></path><path d="M544.4 78L428.6 0L437.6 131Z" fill="#246688" stroke="#246688"></path><path d="M437.6 131L317.7 114L332.7 185Z" fill="#00101c" stroke="#00101c"></path><path d="M785.2 0L672.3 0L739.2 83Z" fill="#297ea6" stroke="#297ea6"></path><path d="M739.2 83L672.3 0L632.3 128Z" fill="#277297" stroke="#277297"></path><path d="M897.1 412L893.1 298L777.2 345Z" fill="#277297" stroke="#277297"></path><path d="M980 132L850.1 116L871.1 221Z" fill="#15384f" stroke="#15384f"></path><path d="M871.1 221L850.1 116L762.2 236Z" fill="#205a7a" stroke="#205a7a"></path><path d="M428.6 0L317.7 114L437.6 131Z" fill="#15384f" stroke="#15384f"></path><path d="M235.8 196L246.8 329L338.7 283Z" fill="#19435d" stroke="#19435d"></path><path d="M535.4 0L428.6 0L544.4 78Z" fill="#19435d" stroke="#19435d"></path><path d="M798.2 412L897.1 412L777.2 345Z" fill="#19435d" stroke="#19435d"></path><path d="M850.1 116L785.2 0L739.2 83Z" fill="#112e42" stroke="#112e42"></path><path d="M338.7 283L246.8 329L364.7 412Z" fill="#246688" stroke="#246688"></path><path d="M235.8 196L338.7 283L332.7 185Z" fill="#277297" stroke="#277297"></path><path d="M250.8 67L235.8 196L317.7 114Z" fill="#081a28" stroke="#081a28"></path><path d="M317.7 114L235.8 196L332.7 185Z" fill="#0c2435" stroke="#0c2435"></path><path d="M850.1 116L838.1 0L785.2 0Z" fill="#19435d" stroke="#19435d"></path><path d="M980 0L838.1 0L850.1 116Z" fill="#00101c" stroke="#00101c"></path><path d="M980 412L980 282L893.1 298Z" fill="#112e42" stroke="#112e42"></path><path d="M893.1 298L980 282L871.1 221Z" fill="#297ea6" stroke="#297ea6"></path><path d="M428.6 0L326.7 0L317.7 114Z" fill="#246688" stroke="#246688"></path><path d="M980 282L980 204L871.1 221Z" fill="#15384f" stroke="#15384f"></path><path d="M326.7 0L250.8 67L317.7 114Z" fill="#1d4e6b" stroke="#1d4e6b"></path><path d="M897.1 412L980 412L893.1 298Z" fill="#00101c" stroke="#00101c"></path><path d="M980 204L980 132L871.1 221Z" fill="#277297" stroke="#277297"></path><path d="M92.9 308L183.8 412L246.8 329Z" fill="#00101c" stroke="#00101c"></path><path d="M246.8 329L183.8 412L364.7 412Z" fill="#00101c" stroke="#00101c"></path><path d="M92.9 308L246.8 329L235.8 196Z" fill="#081a28" stroke="#081a28"></path><path d="M116.9 128L122.9 186L235.8 196Z" fill="#297ea6" stroke="#297ea6"></path><path d="M980 132L980 0L850.1 116Z" fill="#297ea6" stroke="#297ea6"></path><path d="M122.9 186L92.9 308L235.8 196Z" fill="#081a28" stroke="#081a28"></path><path d="M250.8 67L116.9 128L235.8 196Z" fill="#081a28" stroke="#081a28"></path><path d="M0 226L0 332L92.9 308Z" fill="#00101c" stroke="#00101c"></path><path d="M179.8 0L116.9 128L250.8 67Z" fill="#081a28" stroke="#081a28"></path><path d="M326.7 0L179.8 0L250.8 67Z" fill="#1d4e6b" stroke="#1d4e6b"></path><path d="M92.9 308L103.9 412L183.8 412Z" fill="#081a28" stroke="#081a28"></path><path d="M179.8 0L96.9 0L116.9 128Z" fill="#081a28" stroke="#081a28"></path><path d="M0 226L92.9 308L122.9 186Z" fill="#081a28" stroke="#081a28"></path><path d="M0 226L122.9 186L0 127Z" fill="#112e42" stroke="#112e42"></path><path d="M92.9 308L0 332L103.9 412Z" fill="#081a28" stroke="#081a28"></path><path d="M0 127L122.9 186L116.9 128Z" fill="#246688" stroke="#246688"></path><path d="M0 332L0 412L103.9 412Z" fill="#15384f" stroke="#15384f"></path><path d="M96.9 0L0 127L116.9 128Z" fill="#0c2435" stroke="#0c2435"></path><path d="M96.9 0L0 0L0 127Z" fill="#15384f" stroke="#15384f"></path></g></svg>