<svg id="visual" viewBox="0 0 980 412" width="980" height="412" xmlns="http://www.w3.org/2000/svg" xmlns:xlink="http://www.w3.org/1999/xlink" version="1.1"><rect x="0" y="0" width="980" height="412" fill="#931C1C"></rect><path d="M0 259L140 248L280 295L420 266L560 268L700 282L840 254L980 252L980 413L840 413L700 413L560 413L420 413L280 413L140 413L0 413Z" fill="#f5730a"></path><path d="M0 299L140 289L280 291L420 318L560 327L700 322L840 323L980 296L980 413L840 413L700 413L560 413L420 413L280 413L140 413L0 413Z" fill="#da5b09"></path><path d="M0 311L140 347L280 306L420 342L560 347L700 349L840 350L980 330L980 413L840 413L700 413L560 413L420 413L280 413L140 413L0 413Z" fill="#be4407"></path><path d="M0 370L140 358L280 361L420 340L560 343L700 356L840 366L980 346L980 413L840 413L700 413L560 413L420 413L280 413L140 413L0 413Z" fill="#a32d04"></path><path d="M0 376L140 384L280 377L420 391L560 363L700 366L840 363L980 374L980 413L840 413L700 413L560 413L420 413L280 413L140 413L0 413Z" fill="#871400"></path></svg>