<svg id="visual" viewBox="0 0 980 215" width="980" height="215" xmlns="http://www.w3.org/2000/svg" xmlns:xlink="http://www.w3.org/1999/xlink" version="1.1"><path d="M0 38L89 91L178 70L267 48L356 46L445 68L535 102L624 55L713 48L802 42L891 72L980 50L980 0L891 0L802 0L713 0L624 0L535 0L445 0L356 0L267 0L178 0L89 0L0 0Z" fill="#00cc8e"></path><path d="M0 100L89 119L178 121L267 117L356 128L445 121L535 139L624 117L713 117L802 117L891 111L980 119L980 48L891 70L802 40L713 46L624 53L535 100L445 66L356 44L267 46L178 68L89 89L0 36Z" fill="#00b98a"></path><path d="M0 154L89 179L178 149L267 169L356 160L445 154L535 158L624 167L713 164L802 164L891 173L980 179L980 117L891 109L802 115L713 115L624 115L535 137L445 119L356 126L267 115L178 119L89 117L0 98Z" fill="#00a784"></path><path d="M0 188L89 199L178 190L267 192L356 195L445 184L535 179L624 188L713 188L802 195L891 201L980 201L980 177L891 171L802 162L713 162L624 165L535 156L445 152L356 158L267 167L178 147L89 177L0 152Z" fill="#00957c"></path><path d="M0 216L89 216L178 216L267 216L356 216L445 216L535 216L624 216L713 216L802 216L891 216L980 216L980 199L891 199L802 193L713 186L624 186L535 177L445 182L356 193L267 190L178 188L89 197L0 186Z" fill="#038373"></path></svg>